# xmcd
#
# Track frame offsets:
#	150
#	13552
#	27149
#	37793
#	51507
#	65453
#	77117
#	88215
#	101933
#	113364
#	126015
#	138893
#	151763
#	163385
#	177186
#	188384
#	200741
#	213257
#
# Disc length: 3025 seconds
#
# Revision: 1
# Processed by: cddbd v1.5.1PL0 Copyright (c) Steve Scherf et al.
# Submitted via: audiograbber 1.83.01
#
DISCID=e90bcf12
DTITLE=Willie Love and his Three Aces - Greenvile Smokin'
DYEAR=2000
DGENRE=Blues
TTITLE0=Take It Easy Baby
TTITLE1=Little Car Blues
TTITLE2=Everybody's Fishing
TTITLE3=My Own Boogie
TTITLE4=Fallin' Rain
TTITLE5=Feed My Body to the Fishes
TTITLE6=Vanity Dresser Boogie
TTITLE7=74 Blues
TTITLE8=21 Minutes to Nine
TTITLE9=Shady Lane Blues
TTITLE10=Nelson Street Blues
TTITLE11=V-8 Ford
TTITLE12=Shout Brother Shout
TTITLE13=Worried Blues
TTITLE14=Lonesome World Blues
TTITLE15=Wonderful Baby
TTITLE16=Willie Mae
TTITLE17=Way Back
EXTD=
EXTT0=
EXTT1=
EXTT2=
EXTT3=
EXTT4=
EXTT5=
EXTT6=
EXTT7=
EXTT8=
EXTT9=
EXTT10=
EXTT11=
EXTT12=
EXTT13=
EXTT14=
EXTT15=
EXTT16=
EXTT17=
PLAYORDER=
